<svg xmlns="http://www.w3.org/2000/svg" viewBox="0 0 512 512">
  <defs>
    <radialGradient id="bg" cx="50%" cy="42%" r="70%">
      <stop offset="0" stop-color="#0d2029"/>
      <stop offset="1" stop-color="#04070a"/>
    </radialGradient>
    <filter id="glow" x="-50%" y="-50%" width="200%" height="200%"><feGaussianBlur stdDeviation="18"/></filter>
  </defs>
  <rect width="512" height="512" rx="112" fill="url(#bg)"/>
  <rect x="78" y="78" width="104" height="104" rx="20" fill="#8cdefa" filter="url(#glow)" opacity="0.55"/>
  <rect x="78" y="78" width="104" height="104" rx="20" fill="#8cdefa"/>
  <rect x="206" y="80" width="100" height="100" rx="20" fill="#0c161d" stroke="#8cdefa" stroke-opacity="0.32" stroke-width="4"/>
  <rect x="330" y="78" width="104" height="104" rx="20" fill="#8cdefa" fill-opacity="0.28" stroke="#8cdefa" stroke-opacity="0.6" stroke-width="4"/>
  <rect x="80" y="206" width="100" height="100" rx="20" fill="#0c161d" stroke="#8cdefa" stroke-opacity="0.32" stroke-width="4"/>
  <rect x="204" y="204" width="104" height="104" rx="20" fill="#ffb469" filter="url(#glow)" opacity="0.55"/>
  <rect x="204" y="204" width="104" height="104" rx="20" fill="#ffb469"/>
  <rect x="332" y="206" width="100" height="100" rx="20" fill="#0c161d" stroke="#8cdefa" stroke-opacity="0.32" stroke-width="4"/>
  <rect x="78" y="330" width="104" height="104" rx="20" fill="#8cdefa" fill-opacity="0.28" stroke="#8cdefa" stroke-opacity="0.6" stroke-width="4"/>
  <rect x="206" y="332" width="100" height="100" rx="20" fill="#0c161d" stroke="#8cdefa" stroke-opacity="0.32" stroke-width="4"/>
  <rect x="330" y="330" width="104" height="104" rx="20" fill="#8cdefa" filter="url(#glow)" opacity="0.55"/>
  <rect x="330" y="330" width="104" height="104" rx="20" fill="#8cdefa"/>
</svg>
